<svg id="Layer_1" data-name="Layer 1" xmlns="http://www.w3.org/2000/svg" viewBox="0 0 181.93 257.93"><defs><style>.cls-1{fill:#fff;}</style></defs><title>position</title><path class="cls-1" d="M181.93,92.86a92.83,92.83,0,0,1-11.77,45.93c-2.65,4.73-5.82,9.18-8.87,13.68-10.72,15.82-21,31.93-31,48.16q-16.59,26.73-32.95,53.59a7.3,7.3,0,0,1-12.74,0q-22.71-36.8-45.72-73.41c-7-11.1-14.21-22-21.53-32.92a100.06,100.06,0,0,1-14-29.69A95.29,95.29,0,0,1,.51,83.31,91.61,91.61,0,0,1,19.44,35.78C32.72,18.58,49.93,7.24,71.16,2.22A87.25,87.25,0,0,1,100.34.51a86.32,86.32,0,0,1,42.23,16c20.11,14.41,32.51,33.92,37.55,58.11A91.48,91.48,0,0,1,181.93,92.86ZM128.5,96.35c0-10.5-1.86-17.19-5.55-23.34-10.66-17.74-32.6-23.23-49.57-13.83C50,72.15,47,103.38,65.1,120.91c9.59,9.26,21.16,12.6,34.23,9.64C115.45,126.9,128.42,112.09,128.5,96.35Z"/></svg>