<svg id="Layer_1" data-name="Layer 1" xmlns="http://www.w3.org/2000/svg" viewBox="0 0 182 258"><title>position</title><path d="M182,92.73a92.84,92.84,0,0,1-11.77,45.94c-2.65,4.73-5.82,9.18-8.87,13.68-10.72,15.81-21,31.93-31,48.15q-16.59,26.73-33,53.59a7.3,7.3,0,0,1-12.74,0q-22.71-36.8-45.72-73.41c-7-11.09-14.21-22-21.53-32.92A99.94,99.94,0,0,1,3.38,118,95.24,95.24,0,0,1,.58,83.19,91.57,91.57,0,0,1,19.51,35.66C32.79,18.45,50,7.11,71.23,2.1A87.26,87.26,0,0,1,100.41.38a86.52,86.52,0,0,1,42.23,16c20.11,14.41,32.51,33.93,37.55,58.11A91.55,91.55,0,0,1,182,92.73Zm-53.43,3.49c0-10.5-1.86-17.18-5.55-23.33-10.66-17.75-32.6-23.23-49.57-13.83C50,72,47,103.25,65.17,120.78c9.59,9.26,21.16,12.61,34.23,9.64C115.52,126.77,128.49,112,128.57,96.22Z"/></svg>