<svg id="Layer_1" data-name="Layer 1" xmlns="http://www.w3.org/2000/svg" viewBox="0 0 64 57.53"><defs><style>.cls-1{fill:#184250;}</style></defs><title>speed_tacho</title><path class="cls-1" d="M32,0A32,32,0,0,0,12.56,57.41l4.49-7.77a22.13,22.13,0,0,1-2.19-2.14,3.19,3.19,0,0,0-2.4-5.29,3.07,3.07,0,0,0-1.1.21,23.14,23.14,0,0,1-.86-18.93A3.18,3.18,0,0,0,13.57,18,23.1,23.1,0,0,1,28.84,9.1a3.17,3.17,0,0,0,6.32,0A23.09,23.09,0,0,1,50.38,18a3.18,3.18,0,0,0,2,5.7,3.14,3.14,0,0,0,1.15-.22,23.06,23.06,0,0,1-.93,19.12,3.18,3.18,0,0,0-3.62,5.16,24.15,24.15,0,0,1-1.86,1.79l4.21,8A32,32,0,0,0,32,0Z" transform="translate(0 0)"/></svg>